<svg xmlns="http://www.w3.org/2000/svg" xmlns:xlink="http://www.w3.org/1999/xlink" version="1.1" x="0px" y="0px" viewBox="0 0 29 36.25" style="enable-background:new 0 0 29 29;" xml:space="preserve"><g><path d="M23.5,11c3.038,0,5.5-2.462,5.5-5.5S26.538,0,23.5,0S18,2.462,18,5.5S20.462,11,23.5,11z M23.5,3C24.879,3,26,4.121,26,5.5   S24.879,8,23.5,8S21,6.879,21,5.5S22.121,3,23.5,3z"/><path d="M5.5,18C2.462,18,0,20.462,0,23.5S2.462,29,5.5,29s5.5-2.462,5.5-5.5S8.538,18,5.5,18z M5.5,26C4.121,26,3,24.879,3,23.5   S4.121,21,5.5,21S8,22.121,8,23.5S6.879,26,5.5,26z"/><polygon points="16,0 13,0 13,13 0,13 0,16 13,16 13,29 16,29 16,16 29,16 29,13 16,13  "/><polygon points="2.672,10.449 5.5,7.621 8.328,10.449 10.449,8.328 7.621,5.5 10.449,2.672 8.328,0.551 5.5,3.379 2.672,0.551    0.551,2.672 3.379,5.5 0.551,8.328  "/><polygon points="26.328,18.551 23.5,21.379 20.672,18.551 18.551,20.672 21.379,23.5 18.551,26.328 20.672,28.449 23.5,25.621    26.328,28.449 28.449,26.328 25.621,23.5 28.449,20.672  "/></g><text x="0" y="44" fill="#000000" font-size="5px" font-weight="bold" font-family="'Helvetica Neue', Helvetica, Arial-Unicode, Arial, Sans-serif">Created by Baboon designs</text><text x="0" y="49" fill="#000000" font-size="5px" font-weight="bold" font-family="'Helvetica Neue', Helvetica, Arial-Unicode, Arial, Sans-serif">from the Noun Project</text></svg>